<svg width="50" height="50" viewBox="0 0 50 50" fill="none" xmlns="http://www.w3.org/2000/svg">
<path d="M16.6666 37.5H33.3333V33.3333H16.6666V37.5ZM16.6666 29.1667H33.3333V25H16.6666V29.1667ZM12.4999 45.8333C11.3541 45.8333 10.3732 45.4253 9.55721 44.6094C8.74124 43.7934 8.33325 42.8125 8.33325 41.6667V8.33332C8.33325 7.18749 8.74124 6.20659 9.55721 5.39061C10.3732 4.57464 11.3541 4.16666 12.4999 4.16666H29.1666L41.6666 16.6667V41.6667C41.6666 42.8125 41.2586 43.7934 40.4426 44.6094C39.6267 45.4253 38.6458 45.8333 37.4999 45.8333H12.4999ZM27.0833 18.75V8.33332H12.4999V41.6667H37.4999V18.75H27.0833Z" fill="#F5F2E7"/>
</svg>
