<svg width="50" height="50" viewBox="0 0 50 50" fill="none" xmlns="http://www.w3.org/2000/svg">
<path d="M8.33342 41.6667C7.18758 41.6667 6.20668 41.2587 5.39071 40.4427C4.57473 39.6267 4.16675 38.6458 4.16675 37.5V12.5C4.16675 11.3542 4.57473 10.3733 5.39071 9.5573C6.20668 8.74133 7.18758 8.33334 8.33342 8.33334H41.6667C42.8126 8.33334 43.7935 8.74133 44.6095 9.5573C45.4254 10.3733 45.8334 11.3542 45.8334 12.5V37.5C45.8334 38.6458 45.4254 39.6267 44.6095 40.4427C43.7935 41.2587 42.8126 41.6667 41.6667 41.6667H8.33342ZM25.0001 27.0833L8.33342 16.6667V37.5H41.6667V16.6667L25.0001 27.0833ZM25.0001 22.9167L41.6667 12.5H8.33342L25.0001 22.9167ZM8.33342 16.6667V12.5V37.5V16.6667Z" fill="#F5F2E7"/>
</svg>
